<svg xmlns="http://www.w3.org/2000/svg" version="1.1" xmlns:xlink="http://www.w3.org/1999/xlink" xmlns:svgjs="http://svgjs.com/svgjs" width="1440" height="350" preserveAspectRatio="none" viewBox="0 0 1440 350"><g mask="url(&quot;#SvgjsMask1048&quot;)" fill="none"><rect width="1440" height="350" x="0" y="0" fill="rgba(33, 33, 33, 1)"></rect><path d="M30 350L380 0L597.5 0L247.5 350z" fill="url(#SvgjsLinearGradient1049)"></path><path d="M284.6 350L634.6 0L888.1 0L538.1 350z" fill="url(#SvgjsLinearGradient1049)"></path><path d="M514.2 350L864.2 0L1051.7 0L701.7 350z" fill="url(#SvgjsLinearGradient1049)"></path><path d="M755.8000000000001 350L1105.8000000000002 0L1182.3000000000002 0L832.3000000000001 350z" fill="url(#SvgjsLinearGradient1049)"></path><path d="M1418 350L1068 0L936 0L1286 350z" fill="url(#SvgjsLinearGradient1050)"></path><path d="M1200.4 350L850.4000000000001 0L709.4000000000001 0L1059.4 350z" fill="url(#SvgjsLinearGradient1050)"></path><path d="M926.8 350L576.8 0L426.79999999999995 0L776.8 350z" fill="url(#SvgjsLinearGradient1050)"></path><path d="M720.1999999999999 350L370.19999999999993 0L58.19999999999993 0L408.19999999999993 350z" fill="url(#SvgjsLinearGradient1050)"></path><path d="M1226.228081145819 350L1440 136.22808114581903L1440 350z" fill="url(#SvgjsLinearGradient1049)"></path><path d="M0 350L213.77191885418097 350L 0 136.22808114581903z" fill="url(#SvgjsLinearGradient1050)"></path></g><defs><mask id="SvgjsMask1048"><rect width="1440" height="350" fill="#ffffff"></rect></mask><linearGradient x1="0%" y1="100%" x2="100%" y2="0%" id="SvgjsLinearGradient1049"><stop stop-color="rgba(234, 75, 100, 0.36)" offset="0"></stop><stop stop-opacity="0" stop-color="rgba(234, 75, 100, 0.36)" offset="0.66"></stop></linearGradient><linearGradient x1="100%" y1="100%" x2="0%" y2="0%" id="SvgjsLinearGradient1050"><stop stop-color="rgba(234, 75, 100, 0.36)" offset="0"></stop><stop stop-opacity="0" stop-color="rgba(234, 75, 100, 0.36)" offset="0.66"></stop></linearGradient></defs></svg>