<svg xmlns="http://www.w3.org/2000/svg" version="1.1" xmlns:xlink="http://www.w3.org/1999/xlink" xmlns:svgjs="http://svgjs.com/svgjs" width="1440" height="560" preserveAspectRatio="none" viewBox="0 0 1440 560"><g mask="url(&quot;#SvgjsMask1057&quot;)" fill="none"><rect width="1440" height="560" x="0" y="0" fill="rgba(33, 33, 33, 1)"></rect><path d="M47 560L607 0L733 0L173 560z" fill="url(#SvgjsLinearGradient1058)"></path><path d="M346.8 560L906.8 0L980.3 0L420.3 560z" fill="url(#SvgjsLinearGradient1058)"></path><path d="M635.6 560L1195.6 0L1642.6 0L1082.6 560z" fill="url(#SvgjsLinearGradient1058)"></path><path d="M1410 560L850 0L730 0L1290 560z" fill="url(#SvgjsLinearGradient1059)"></path><path d="M1098.2 560L538.2 0L382.20000000000005 0L942.2 560z" fill="url(#SvgjsLinearGradient1059)"></path><path d="M784.4 560L224.39999999999998 0L117.89999999999998 0L677.9 560z" fill="url(#SvgjsLinearGradient1059)"></path><path d="M931.8651346716485 560L1440 51.865134671648605L1440 560z" fill="url(#SvgjsLinearGradient1058)"></path><path d="M0 560L508.1348653283514 560L 0 51.865134671648605z" fill="url(#SvgjsLinearGradient1059)"></path></g><defs><mask id="SvgjsMask1057"><rect width="1440" height="560" fill="#ffffff"></rect></mask><linearGradient x1="0%" y1="100%" x2="100%" y2="0%" id="SvgjsLinearGradient1058"><stop stop-color="rgba(234, 75, 100, 0.36)" offset="0"></stop><stop stop-opacity="0" stop-color="rgba(234, 75, 100, 0.36)" offset="0.66"></stop></linearGradient><linearGradient x1="100%" y1="100%" x2="0%" y2="0%" id="SvgjsLinearGradient1059"><stop stop-color="rgba(234, 75, 100, 0.36)" offset="0"></stop><stop stop-opacity="0" stop-color="rgba(234, 75, 100, 0.36)" offset="0.66"></stop></linearGradient></defs></svg>