<svg xmlns="http://www.w3.org/2000/svg" version="1.1" xmlns:xlink="http://www.w3.org/1999/xlink" xmlns:svgjs="http://svgjs.com/svgjs" width="1440" height="560" preserveAspectRatio="none" viewBox="0 0 1440 560"><g mask="url(&quot;#SvgjsMask1003&quot;)" fill="none"><rect width="1440" height="560" x="0" y="0" fill="rgba(33, 33, 33, 1)"></rect><path d="M -301.826684052645,275 C -205.83,302.2 -13.83,444.6 178.17331594735498,411 C 370.17,377.4 466.17,98.6 658.1733159473549,107 C 850.17,115.4 946.17,435.6 1138.173315947355,453 C 1330.17,470.4 1557.81,214.2 1618.173315947355,194 C 1678.54,173.8 1475.63,320.4 1440,352" stroke="rgba(234, 75, 100, 0.56)" stroke-width="2"></path><path d="M -766.0177598304313,97 C -670.02,135.8 -478.02,284 -286.01775983043126,291 C -94.02,298 1.98,118.4 193.98224016956874,132 C 385.98,145.6 481.98,338.6 673.9822401695687,359 C 865.98,379.4 1000.78,215.6 1153.9822401695687,234 C 1307.19,252.4 1382.8,407.6 1440,451" stroke="rgba(234, 75, 100, 0.56)" stroke-width="2"></path><path d="M -168.0027307680927,431 C -72,374.8 120,178.6 311.9972692319073,150 C 504,121.4 600,302.6 791.9972692319072,288 C 984,273.4 1080,33.8 1271.9972692319072,77 C 1464,120.2 1718.4,474.2 1751.9972692319072,504 C 1785.6,533.8 1502.4,281.6 1440,226" stroke="rgba(234, 75, 100, 0.56)" stroke-width="2"></path><path d="M -623.7613140644157,348 C -527.76,300.2 -335.76,103.6 -143.76131406441567,109 C 48.24,114.4 144.24,379 336.23868593558433,375 C 528.24,371 624.24,83.6 816.2386859355843,89 C 1008.24,94.4 1171.49,400.4 1296.2386859355843,402 C 1420.99,403.6 1411.25,158 1440,97" stroke="rgba(234, 75, 100, 0.56)" stroke-width="2"></path></g><defs><mask id="SvgjsMask1003"><rect width="1440" height="560" fill="#ffffff"></rect></mask></defs></svg>